<svg xmlns="http://www.w3.org/2000/svg" viewBox="0 0 500 500"><path d="M373.23 244a21.78 21.78 0 012.12-5.37l-2.92-4.47 6.15-6.36 4.57 2.78a21.6 21.6 0 015.3-2.3l1.09-5.23 8.85-.15 1.27 5.2a21.78 21.78 0 015.37 2.12l4.47-2.93 6.36 6.16-2.78 4.55a21.53 21.53 0 012.3 5.29l5.23 1.1.15 8.85-5.2 1.27a21.87 21.87 0 01-2.12 5.36l2.93 4.48-6.16 6.36-4.57-2.71a21.91 21.91 0 01-5.29 2.3l-1.1 5.23-8.85.14-1.27-5.19a21.87 21.87 0 01-5.36-2.12l-4.48 2.92-6.36-6.15 2.78-4.57a22 22 0 01-2.3-5.3l-5.23-1.09-.14-8.85 5.19-1.27zm11.67 5a9.49 9.49 0 109.34-9.65 9.48 9.48 0 00-9.34 9.65z" fill="none"/><path d="M384.9 249a7.24 7.24 0 01.16-2.35 9.57 9.57 0 017.38-7.32 9.8 9.8 0 015.12.31 9.78 9.78 0 014.59 3.31 9.7 9.7 0 01.19 11.52 9.05 9.05 0 01-2 2.1 9.19 9.19 0 01-2.44 1.36 9.75 9.75 0 01-5.11.48 9.6 9.6 0 01-7.62-7.08 7.32 7.32 0 01-.23-2.33 21.12 21.12 0 00.43 2.28 9.5 9.5 0 003.55 5.05 9.28 9.28 0 008.8 1.15 8.88 8.88 0 002.32-1.3 8.7 8.7 0 001.92-2 9.22 9.22 0 00-.18-10.92 8.88 8.88 0 00-2-1.94 8.69 8.69 0 00-2.36-1.22 9.29 9.29 0 00-4.87-.34 9.12 9.12 0 00-3.89 1.77 9.45 9.45 0 00-3.38 5.17 19.37 19.37 0 00-.38 2.3z" fill="#e0e0e0"/><path d="M373.23 244a1.31 1.31 0 01-.32.1l-1 .26-3.87 1 .06-.08c.05 2.26.11 5.24.19 8.84l-.1-.12 5.24 1.07h.09v.09a21.81 21.81 0 002.3 5.25l.05.09-.05.08-2.77 4.58v-.23l6.37 6.15h-.25l4.47-2.93.11-.08.11.07a22.18 22.18 0 005.32 2.09h.13v.14c.4 1.61.83 3.38 1.28 5.19l-.23-.18 8.85-.15-.24.19c.34-1.63.72-3.42 1.09-5.24v-.14h.15a21.48 21.48 0 005.23-2.28l.13-.08.13.08 4.57 2.78h-.31l6.15-6.36v.32l-2.93-4.48-.08-.13.07-.14a21.33 21.33 0 002.1-5.29v-.15h.15l5.2-1.26-.2.25c-.05-3-.1-5.94-.14-8.85l.2.25-5.23-1.1h-.15l-.05-.15a21.38 21.38 0 00-2.26-5.23l-.08-.13.08-.13 2.78-4.57v.31l-6.35-6.16h.29l-4.48 2.93-.12.07-.12-.07a21.53 21.53 0 00-5.3-2.1h-.14v-.13l-1.26-5.2.22.17-8.85.13.19-.16c-.39 1.84-.76 3.56-1.11 5.23v.11h-.11a21.68 21.68 0 00-5.26 2.26l-.09.06-.09-.06-4.49-2.78h.19l-6.18 6.34v-.15l2.89 4.5a22.2 22.2 0 00-1.77 4c-.14.44-.24.78-.32 1s-.11.34-.11.34 0-.12.07-.35.14-.58.28-1a20.87 20.87 0 011.7-4v.09c-.8-1.22-1.77-2.68-2.95-4.46l-.05-.08.06-.06 6.13-6.39.09-.09.1.07 4.58 2.76h-.17a21.58 21.58 0 015.33-2.33l-.14.14c.35-1.66.71-3.39 1.09-5.23v-.16h.16l8.85-.16h.17v.17c.42 1.69.84 3.41 1.28 5.19l-.17-.16a21.76 21.76 0 015.43 2.14h-.24l4.47-2.94.16-.1.14.13 6.37 6.15.14.14-.11.17-2.77 4.57v-.26a21.86 21.86 0 012.33 5.35l-.2-.18 5.24 1.1h.2v.21q.08 4.37.15 8.84v.21l-.2.05-5.2 1.27.2-.19a22.28 22.28 0 01-2.14 5.43v-.27l2.92 4.48.12.17-.15.15-6.16 6.36-.14.14-.17-.1-4.57-2.79h.26a21.55 21.55 0 01-5.36 2.32l.18-.18c-.38 1.81-.76 3.6-1.1 5.23v.19h-.2l-8.85.14h-.18v-.18l-1.26-5.2.16.17a22.31 22.31 0 01-5.42-2.16h.23l-4.49 2.91-.13.09-.12-.11-6.35-6.17-.1-.1.07-.13 2.79-4.56v.17a21.94 21.94 0 01-2.29-5.34l.11.11-5.23-1.11h-.1v-.1c0-3.61-.07-6.59-.1-8.85v-.07h.05l3.86-.9 1-.22z" fill="#e0e0e0"/><path d="M114.41 219.61a24.61 24.61 0 012.37-6l-3.27-5 6.88-7.11 5.12 3.11a24.46 24.46 0 015.92-2.57l1.22-5.85 9.9-.16 1.42 5.81a24.21 24.21 0 016 2.37l5-3.27 7.11 6.88-3.08 5.11a24.29 24.29 0 012.57 5.92l5.85 1.22.16 9.9-5.81 1.42a24.21 24.21 0 01-2.37 6l3.27 5-6.88 7.11-5.12-3.11a24.29 24.29 0 01-5.92 2.57l-1.22 5.85-9.9.16-1.42-5.81a24.21 24.21 0 01-6-2.37l-5 3.27-7.11-6.88 3.11-5.12a24.46 24.46 0 01-2.57-5.92l-5.85-1.22-.16-9.9 5.81-1.42zm13 5.61a10.62 10.62 0 1010.44-10.79 10.62 10.62 0 00-10.39 10.79zM342.47 194a7 7 0 01.68-1.73l-.94-1.45 2-2.05 1.47.9a7.28 7.28 0 011.71-.75l.35-1.69h2.86l.41 1.67a7.27 7.27 0 011.73.69l1.45-.94 2.05 2-.89 1.48a7.25 7.25 0 01.74 1.71l1.69.35v2.86l-1.67.41a7.44 7.44 0 01-.69 1.73l.95 1.45-2 2-1.48-.9a6.86 6.86 0 01-1.71.74l-.35 1.69-2.86.05-.41-1.68a7 7 0 01-1.73-.68l-1.45.94-2.05-2 .9-1.48a6.86 6.86 0 01-.74-1.71l-1.69-.35v-2.86l1.68-.41zm3.76 1.62a3.07 3.07 0 103-3.12 3.07 3.07 0 00-3 3.16z" fill="#e0e0e0" fill-rule="evenodd"/><path d="M48.58 223.62a9.94 9.94 0 011-2.39l-1.31-2 2.73-2.85 2 1.24a9.36 9.36 0 012.36-1l.49-2.34 4-.07.57 2.32a10.37 10.37 0 012.39 1l2-1.3 2.84 2.75-1.24 2a9.81 9.81 0 011 2.37l2.34.49.07 3.95-2.33.57a10 10 0 01-.94 2.4l1.3 2-2.75 2.84-2-1.24a9.43 9.43 0 01-2.37 1l-.49 2.34-4 .07-.57-2.32a10 10 0 01-2.4-.95l-2 1.31-2.82-2.81 1.24-2a9.28 9.28 0 01-1-2.37l-2.34-.49-.07-3.95 2.32-.57zm5.22 2.24a4.24 4.24 0 104.2-4.31 4.24 4.24 0 00-4.2 4.31zm354.54-65.94a22.21 22.21 0 012.17-5.49l-3-4.58 6.3-6.51 4.67 2.84a22.38 22.38 0 015.42-2.34l1.12-5.36 9.05-.15 1.3 5.32a22.37 22.37 0 015.49 2.17l4.58-3 6.5 6.29-2.84 4.68a22 22 0 012.35 5.41l5.36 1.13.14 9-5.31 1.29a22.06 22.06 0 01-2.17 5.49l3 4.58-6.3 6.51-4.67-2.84a22.4 22.4 0 01-5.42 2.35l-1.08 5.41-9 .15-1.3-5.32a22 22 0 01-5.49-2.17l-4.58 3-6.5-6.3 2.84-4.68a22 22 0 01-2.35-5.41l-5.35-1.12-.15-9.06 5.31-1.29zm11.94 5.13a9.71 9.71 0 109.55-9.87 9.7 9.7 0 00-9.55 9.87z" fill="#ebebeb" fill-rule="evenodd"/><path d="M62.94 310.83a19.9 19.9 0 012-5l-2.71-4.15 5.7-5.89 4.23 2.58a19.83 19.83 0 014.9-2.13l1-4.85 8.19-.13 1.18 4.81a20.21 20.21 0 015 2l4.14-2.71 5.89 5.7-2.57 4.23a20.18 20.18 0 012.12 4.9l4.85 1 .14 8.19-4.82 1.18a20.19 20.19 0 01-2 5l2.71 4.14-5.7 5.89L93 333a20.26 20.26 0 01-4.9 2.13L87 340l-8.2.14-1.17-4.81a20.29 20.29 0 01-5-2l-4.15 2.71-5.89-5.7 2.58-4.24a19.51 19.51 0 01-2.13-4.9l-4.85-1-.13-8.2 4.81-1.17zm10.8 4.64a8.8 8.8 0 108.65-8.93 8.79 8.79 0 00-8.65 8.93zm161.15-174.19a9.07 9.07 0 01.85-2.17l-1.18-1.8 2.49-2.57 1.84 1.12a8.8 8.8 0 012.13-.92l.45-2.11 3.56-.06.51 2.09a8.55 8.55 0 012.17.86l1.8-1.18 2.57 2.48-1.08 1.85a8.42 8.42 0 01.92 2.13l2.11.44.06 3.57-2.09.51a8.7 8.7 0 01-.86 2.17l1.18 1.8-2.48 2.57-1.84-1.12a8.87 8.87 0 01-2.14.92l-.44 2.11-3.57.06-.51-2.09a8.48 8.48 0 01-2.16-.86l-1.81 1.18-2.56-2.48 1.12-1.85a8.82 8.82 0 01-.93-2.13l-2.11-.44-.06-3.57 2.1-.51zm4.7 2a3.83 3.83 0 103.77-3.89 3.84 3.84 0 00-3.77 3.91z" fill="#f5f5f5" fill-rule="evenodd"/><path d="M420 390.92c4.5-2.32 9.79-2.62 14.78-1.8 2.69.45 5.48 1.25 7.31 3.26s2.17 5.56.07 7.29a6.91 6.91 0 01-4.6 1.17c-3.91 0-8.25-.73-11.37 1.62-1.78 1.34-3 3.57-5.1 4.23a5 5 0 01-5.54-2.46 8.6 8.6 0 01-.62-6.35 9.7 9.7 0 015.07-6.96zM409.66 371c2.75 3.93 8.09 2.63 10.57.23s3.52-5.87 4.48-9.18c2.18-7.57 4.37-15.52 2.75-23.23a12.86 12.86 0 00-3-6.31 6.72 6.72 0 00-6.39-2.12c-2.69.71-4.37 3.35-5.58 5.86a55.35 55.35 0 00-5.43 23.75c0 3.83.44 7.84 2.6 11m-7.55 5.67c3-3.55 3.55-8.72 2.22-13.16s-4.33-8.21-7.79-11.29a41.81 41.81 0 00-14-8.23 14.87 14.87 0 00-6.27-1.07 6.55 6.55 0 00-5.26 3.19c-1.47 2.8-.07 6.19 1.46 9a106.42 106.42 0 009.21 13.89c2.74 3.54 5.89 7 10.07 8.63s8.54 1.42 10.75-1.49" fill="#ebebeb"/><path d="M409.47 430.28a8.48 8.48 0 00.25-1.79c.13-1.3.28-2.93.47-4.87a70.83 70.83 0 011.1-7.14 54.77 54.77 0 012.6-8.44 31.09 31.09 0 014.3-7.62 16 16 0 015.44-4.53 15.56 15.56 0 014.59-1.43 8.61 8.61 0 001.78-.25 7.68 7.68 0 00-1.81 0 14 14 0 00-4.78 1.24 16 16 0 00-5.74 4.57 30 30 0 00-4.47 7.78 52.18 52.18 0 00-2.58 8.57 62.27 62.27 0 00-.95 7.23c-.15 2.07-.21 3.75-.24 4.9a8.89 8.89 0 00.04 1.78z" fill="#e0e0e0"/><path d="M409.81 426.53a3.84 3.84 0 000-.83v-2.37c0-2.05 0-5 .1-8.7.19-7.34.82-15.25 2-26.39 1.16-10.48 2.71-22.68 4.35-30.61.35-1.8.7-3.42 1-4.84s.59-2.66.86-3.65.4-1.7.55-2.3a2.94 2.94 0 00.14-.82 4 4 0 00-.28.78l-.69 2.27c-.31 1-.62 2.2-1 3.62s-.76 3-1.14 4.83a268.55 268.55 0 00-4.57 28.4c-1.23 11.17-1.78 21.34-1.83 28.7 0 3.68 0 6.66.13 8.72.06 1 .11 1.74.15 2.37a3.14 3.14 0 00.23.82z" fill="#e0e0e0"/><path d="M409.86 406.92a16.24 16.24 0 000-2.48c-.09-1.59-.31-3.88-.76-6.7a87.45 87.45 0 00-2.2-9.74 79.53 79.53 0 00-4.08-11.56 61.73 61.73 0 00-12-18.67 30.88 30.88 0 00-2.82-2.62c-.44-.37-.82-.73-1.21-1l-1.09-.76a15.66 15.66 0 00-2.09-1.33c-.11.16 2.95 2 6.83 6.09a64.87 64.87 0 0111.69 18.6 91.53 91.53 0 014.11 11.45c1.07 3.59 1.78 6.89 2.32 9.67s.8 5.06 1 6.64a14.61 14.61 0 00.3 2.41zm-18.96 34.59l1.97 26.92h34.58l1.97-26.92H390.9zm-3.34-10.61h45.98v10.61h-45.98z" fill="#e0e0e0"/><path fill="#ebebeb" d="M387.56 467.4v2.95h45.22v-2.95h-45.22z"/><path fill="#e0e0e0" d="M391.84 475.52l-2.12-5.17h41.42l-2.47 5.17h-36.83z"/><path d="M428.77 450.31s0 .09-.16.25l-.51.68-2 2.58-.09.12-.08-.12L421 447h.28l-4.87 6.9-.16.22-.17-.21-5.82-6.91h.34l-.32.4-5.17 6.48-.17.22-.16-.23-4.88-6.87h.29c-2.41 2.73-4.44 5.06-6 6.84l-.1.12-.09-.14-1.88-3.16-.48-.84a1.64 1.64 0 01-.15-.3 1.92 1.92 0 01.21.27l.53.81 2 3.1H394c1.53-1.81 3.54-4.16 5.9-6.93l.15-.17.14.18 4.92 6.87h-.33l5.15-6.49.32-.4.16-.2.17.2 5.77 6.89H416l4.93-6.86.14-.2.14.2 4.85 6.92h-.18c.88-1.06 1.58-1.9 2.1-2.51l.56-.65zm1.13-8.98c0 .12-8.67.22-19.36.22s-19.35-.1-19.35-.22 8.66-.21 19.35-.21 19.36.09 19.36.21zm1.75 29.3c0 .12-9.42.22-21 .22s-21-.1-21-.22 9.42-.21 21-.21 21 .1 21 .21z" fill="#f5f5f5"/><path d="M67.42 169.17a10.87 10.87 0 011.79 0c.58 0 1.29 0 2.1.06s1.76.09 2.78.22a64.67 64.67 0 017.17 1.13A71.67 71.67 0 0189.8 173a72 72 0 018.12 3.61 62.75 62.75 0 016.21 3.76c.87.56 1.6 1.14 2.27 1.62s1.21.93 1.65 1.31a12.38 12.38 0 011.34 1.19 10.53 10.53 0 01-1.47-1c-.46-.35-1-.77-1.7-1.23s-1.42-1-2.29-1.56c-1.71-1.13-3.83-2.37-6.23-3.63a76.93 76.93 0 00-8.08-3.55 77.6 77.6 0 00-8.46-2.5 72.05 72.05 0 00-7.11-1.24c-1-.15-1.94-.2-2.76-.29s-1.51-.12-2.09-.15a11.41 11.41 0 01-1.78-.17zM48.89 280.58a3.13 3.13 0 01.54-.46l1.6-1.21c.69-.53 1.56-1.17 2.6-1.85s2.19-1.5 3.54-2.29 2.79-1.71 4.42-2.57 3.37-1.76 5.23-2.67a109 109 0 0112.52-4.92 110.78 110.78 0 0113.07-3.19c2-.32 4-.66 5.82-.83s3.53-.36 5.09-.45 3-.13 4.22-.16 2.31 0 3.18 0l2 .07a3.2 3.2 0 01.7.06 3.45 3.45 0 01-.7 0h-2c-.87 0-1.94 0-3.18.08s-2.64.08-4.19.24-3.26.25-5.07.51-3.75.54-5.78.87a114.31 114.31 0 00-13 3.22A115.86 115.86 0 0067 270c-1.85.9-3.62 1.73-5.22 2.62s-3.1 1.71-4.44 2.5-2.52 1.57-3.57 2.23-1.93 1.26-2.64 1.76l-1.66 1.14a4.71 4.71 0 01-.58.33zm71.87 53.75a2.15 2.15 0 01.07-.54l.3-1.54c.13-.66.31-1.47.55-2.4s.48-2 .83-3.17c.65-2.34 1.54-5.08 2.67-8.09s2.53-6.24 4.18-9.56 3.44-6.36 5.15-9.08 3.4-5.06 4.89-7c.72-1 1.43-1.81 2-2.56s1.14-1.37 1.6-1.88l1-1.16c.25-.26.38-.39.4-.38a2.17 2.17 0 01-.32.45c-.25.33-.58.73-1 1.22s-.95 1.17-1.53 1.94-1.27 1.61-2 2.6c-1.44 1.93-3.06 4.31-4.77 7s-3.43 5.76-5.09 9.06-3 6.52-4.21 9.49-2.07 5.71-2.76 8c-.37 1.16-.64 2.22-.9 3.14s-.47 1.72-.63 2.38-.29 1.11-.4 1.51a2.61 2.61 0 01-.03.57zM256.62 59.85a4 4 0 01-.39.6L255 62.14c-.53.72-1.17 1.61-1.87 2.67s-1.55 2.24-2.39 3.6-1.74 2.83-2.74 4.46-1.93 3.39-2.95 5.24c-2 3.75-4 8-5.83 12.47s-3.32 8.94-4.53 13c-.56 2-1.13 4-1.55 5.81s-.82 3.54-1.15 5.11-.57 3-.8 4.24-.4 2.34-.52 3.23-.24 1.52-.32 2a3.25 3.25 0 01-.15.7 3.9 3.9 0 010-.72c.06-.52.13-1.2.23-2s.22-2 .44-3.24.39-2.7.72-4.27.64-3.31 1.09-5.14 1-3.79 1.51-5.84c1.19-4.08 2.67-8.52 4.5-13.07s3.9-8.75 5.9-12.49c1-1.86 2-3.63 3-5.24s1.92-3.1 2.8-4.44 1.73-2.52 2.46-3.56 1.39-1.93 2-2.63.95-1.22 1.28-1.63a2.87 2.87 0 01.49-.55zm90.03 103.89a2.88 2.88 0 01-.6.11l-1.73.23-1.25.15c-.46.07-.95.18-1.47.27-1.06.22-2.27.39-3.57.77l-2 .53c-.72.19-1.44.46-2.19.7-1.53.46-3.09 1.14-4.74 1.81a57.83 57.83 0 00-18.89 13.27c-1.19 1.33-2.36 2.57-3.3 3.85-.48.63-1 1.21-1.41 1.81l-1.24 1.76c-.8 1.09-1.37 2.18-1.93 3.09-.27.47-.54.89-.76 1.3l-.56 1.12-.8 1.55a2.44 2.44 0 01-.32.53 3.28 3.28 0 01.22-.57c.19-.42.42-1 .72-1.6l.52-1.15c.21-.41.47-.84.73-1.32a36.3 36.3 0 011.87-3.16l1.18-1.78c.41-.62.91-1.21 1.39-1.85.94-1.3 2.1-2.56 3.29-3.91a56.24 56.24 0 0119.05-13.38c1.67-.66 3.25-1.33 4.79-1.78.77-.23 1.5-.5 2.22-.68l2.07-.5a34.58 34.58 0 013.61-.69c.53-.09 1-.18 1.49-.23l1.26-.11 1.74-.13a2.18 2.18 0 01.61-.01zm73.53 59.51l-.26-.08-.75-.25-2.87-1-2.07-.76c-.76-.26-1.6-.51-2.5-.8-1.79-.56-3.81-1.27-6.11-1.85l-3.58-1c-1.25-.34-2.57-.6-3.92-.92-2.7-.67-5.64-1.16-8.71-1.72a150.92 150.92 0 00-40.57-1.24c-3.1.37-6.06.68-8.8 1.18-1.37.24-2.7.42-4 .68l-3.63.75c-2.33.44-4.39 1-6.22 1.48-.91.23-1.76.43-2.53.64l-2.12.63-2.92.86-.77.21a1 1 0 01-.27 0l.25-.1.75-.26 2.9-1 2.11-.67c.77-.23 1.62-.45 2.53-.7 1.82-.47 3.88-1.08 6.21-1.55l3.64-.79c1.26-.27 2.6-.46 4-.7 2.75-.53 5.71-.85 8.82-1.24a147.09 147.09 0 0140.7 1.25c3.08.58 6 1.08 8.72 1.77 1.36.33 2.68.6 3.93 1l3.58 1c2.3.61 4.31 1.35 6.1 1.93.9.3 1.73.57 2.49.85l2.06.8 2.84 1.12.73.31c.16.12.25.16.24.17z" fill="#ebebeb"/><path d="M166.91 55.11l.937-.93a13.95 13.95 0 0119.728.073l2.656 2.675a13.95 13.95 0 01-.072 19.728l-.937.93L166.91 55.11z" fill="#455a64"/><path d="M189.22 77.6l-22.33-22.5.93-.93a13.9 13.9 0 019.85-4.06h.05a13.91 13.91 0 019.87 4.12l2.66 2.68a14 14 0 01-.07 19.77zm-22.28-22.51l22.28 22.44.92-.91a13.93 13.93 0 00.07-19.69l-2.66-2.68a13.81 13.81 0 00-9.83-4.11h-.05a13.83 13.83 0 00-9.81 4z" fill="#263238"/><path d="M121.843 143.62l-.97.895a13.95 13.95 0 01-19.712-.791l-2.557-2.771a14 14 0 01.795-19.783l.933-.861 21.511 23.311z" fill="#455a64"/><path d="M111.43 148.25h-.58a13.91 13.91 0 01-9.71-4.48L98.59 141a14 14 0 01.79-19.75l1-.91 21.49 23.29-1 .9a13.86 13.86 0 01-9.44 3.72zm-12-27a13.93 13.93 0 00-.81 19.75l2.56 2.77a13.85 13.85 0 009.68 4.47h.57a13.83 13.83 0 009.43-3.69l1-.88-21.44-23.24z" fill="#263238"/><path fill="#455a64" d="M85.603 94.355l1.57-1.946 16.104 12.99-1.57 1.945z"/><path d="M88.22 88.3a5.1 5.1 0 11-7.17.77 5.12 5.12 0 017.17-.77z" fill="#263238"/><rect x="102.48" y="70.93" width="99.18" height="74.84" rx="16.5" transform="rotate(-44.8 152.069 108.347)" fill="#fdb5c8"/><path fill="#455a64" d="M150.5 57.18l-2.21-8.43-5.75.95-1.66-6.09 1.88-.43 1.31 4.43 5.74-.78 2.4 8.65-1.71 1.7z"/><rect x="101.79" y="85.29" width="85.13" height="30.57" rx="13.96" transform="rotate(-44.8 144.343 100.579)" fill="#263238"/><path d="M177.66 95s.12-.16.37-.45a14.86 14.86 0 001.1-1.33 16.84 16.84 0 002.93-5.87 18.94 18.94 0 00.67-4.7 18.57 18.57 0 00-.9-5.56 17.22 17.22 0 00-3.12-5.65l-1.18-1.3-1.28-1.28a26.54 26.54 0 00-2.76-2.52 17.67 17.67 0 00-7.22-3.34 17.88 17.88 0 00-8.56.5 17.5 17.5 0 00-4.12 1.92 21.42 21.42 0 00-3.62 3l-7.05 7-31.43 31.23a17.41 17.41 0 00-5 10.11 18.06 18.06 0 00.18 5.59 17.88 17.88 0 003.44 7.41c.59.69 1.17 1.36 1.83 2a30.29 30.29 0 003.94 3.62 17.35 17.35 0 0019 .87 18.61 18.61 0 002-1.33c.6-.51 1.19-1 1.74-1.57l3.29-3.25 12-11.85 17.37-17.13 4.72-4.57 1.24-1.2c.28-.26.44-.39.44-.39s-.13.15-.4.43l-1.21 1.24-4.67 4.7-17.26 17.25-11.93 11.9-3.27 3.26c-.56.55-1.17 1.08-1.77 1.6a19.85 19.85 0 01-2 1.38 17.84 17.84 0 01-19.52-.86 32.38 32.38 0 01-4-3.67c-.65-.63-1.26-1.34-1.87-2a20.56 20.56 0 01-1.56-2.33 17.65 17.65 0 01-2-5.3 18.52 18.52 0 01-.19-5.76 17.85 17.85 0 015.11-10.4l31.46-31.21 7.07-7a22 22 0 013.7-3.07 17.72 17.72 0 0120.36.93 26.56 26.56 0 012.79 2.57l1.27 1.29 1.21 1.27a17.6 17.6 0 013.11 5.82 18.15 18.15 0 01.86 5.65 19.29 19.29 0 01-.71 4.76 16.84 16.84 0 01-3 5.88 12.48 12.48 0 01-1.15 1.29z" fill="#263238"/><path d="M125.76 126.43a78.3 78.3 0 01-.39-9 75.7 75.7 0 01.14-9 80.3 80.3 0 01.38 9 79.51 79.51 0 01-.13 9z" fill="#fff"/><path d="M134.47 116.72a74.85 74.85 0 01-9 .67 81.18 81.18 0 01-9 .15 75.16 75.16 0 019-.67 81 81 0 019-.15zm26.93-26.61a78.76 78.76 0 01-.39-9 75.37 75.37 0 01.14-9 80.3 80.3 0 01.38 9 79.51 79.51 0 01-.13 9z" fill="#fff"/><path d="M170.11 80.4a80.16 80.16 0 01-9 .67 76.89 76.89 0 01-9 .14 79.21 79.21 0 019-.66 78.18 78.18 0 019-.15z" fill="#fff"/><circle cx="140.64" cy="39.98" r="5.1" transform="rotate(-.89 140.04 39.716)" fill="#263238"/><path d="M156.51 156.68a5.09 5.09 0 01-.88-.73c-.55-.49-1.32-1.22-2.27-2.12-1.89-1.8-4.49-4.33-7.32-7.14s-5.38-5.38-7.2-7.27a22.26 22.26 0 01-2.81-3.18 11.05 11.05 0 01.84.77l2.23 2.15c2 1.91 4.5 4.41 7.3 7.16s5.39 5.38 7.22 7.25l2.15 2.24a4.71 4.71 0 01.74.87zm43.31-43.63a4.79 4.79 0 01-.88-.73c-.54-.49-1.31-1.21-2.26-2.11-1.9-1.81-4.49-4.33-7.33-7.14s-5.38-5.39-7.19-7.28a22.6 22.6 0 01-2.81-3.17 7.79 7.79 0 01.84.76l2.23 2.15 7.3 7.17c2.84 2.81 5.39 5.37 7.22 7.24l2.15 2.24a4.24 4.24 0 01.73.87zm-57.274 22.974l36.579-37.17 4.077 4.012-36.579 37.17zm-4.946 6.796a1.1 1.1 0 11-1-1.13 1.09 1.09 0 011 1.13zm8.34 8.81a1.1 1.1 0 01-2.19-.09 1.1 1.1 0 012.19.09zm40.68-58.72a1.1 1.1 0 01-1.14 1 1.1 1.1 0 11.09-2.19 1.08 1.08 0 011.05 1.19zm8.38 8.81a1.09 1.09 0 11-2.18-.09 1.09 1.09 0 112.18.09z" fill="#263238"/><path d="M105.45 144a27.16 27.16 0 00-2.31-2.05c-.75-.59-1.7-1.23-2.67-2.09a10.37 10.37 0 01-2.54-3.34 11.3 11.3 0 01-.79-7.48 8.89 8.89 0 01.82-2.15c.28-.47.44-.72.47-.7a22.92 22.92 0 00-.93 2.93 11.54 11.54 0 00.9 7.17c1.2 2.66 3.53 4.12 5 5.37a7 7 0 012.05 2.34zm43.47-80.47c.1.1-10.41 10.48-23.47 23.17s-23.75 22.91-23.85 22.81S112 99 125.08 86.33s23.74-22.9 23.84-22.8zm-65 32.34c0 .06-.52 0-1.19-.45a4.1 4.1 0 01-1.2-5.6c.44-.69.88-.95.92-.9s-.28.41-.59 1.07a4.45 4.45 0 00-.36 2.76 4.4 4.4 0 001.5 2.38c.51.48 1 .66.92.74zm55.54-52.18c0 .06-.57 0-1.28-.51a4.16 4.16 0 01-.78-6c.56-.67 1.08-.88 1.11-.83s-.37.38-.81 1a4.18 4.18 0 00.71 5.55c.59.52 1.08.71 1.05.79zm37.86 8.02a22.58 22.58 0 00-4.11.94 23.1 23.1 0 00-3.63 2.13 6.58 6.58 0 013.42-2.62 6.69 6.69 0 014.32-.45zm-41.51 106.75a103.24 103.24 0 01-7.47-7.35c-4-4.16-7.19-7.61-7.08-7.71s3.44 3.19 7.46 7.35 7.19 7.61 7.09 7.71z" fill="#fff"/><path fill="#fdb5c8" d="M208.44 398.62h42.79v60.65h-42.79z"/><path d="M208.77 458.23h42.14a5.7 5.7 0 015.7 5.7v.54h-53.55v-.54a5.7 5.7 0 015.71-5.7z" fill="#263238"/><path fill="#fdb5c8" d="M198.18 464.47h64.99v9.88h-64.99z"/><path d="M251 452.61c0 .14-9.48.26-21.18.26s-21.19-.12-21.19-.26 9.48-.26 21.19-.26 21.18.11 21.18.26zm0-7.22c0 .15-9.48.26-21.18.26s-21.19-.11-21.19-.26 9.48-.26 21.19-.26 21.18.12 21.18.26zm0-7.08c0 .14-9.48.26-21.18.26s-21.19-.12-21.19-.26 9.48-.26 21.19-.26 21.18.12 21.18.26zm0-7.21c0 .14-9.48.26-21.18.26s-21.19-.12-21.19-.26 9.48-.26 21.19-.26 21.18.16 21.18.26zm0-7.1c0 .15-9.48.26-21.18.26s-21.19-.11-21.19-.26 9.48-.26 21.19-.26 21.18.13 21.18.26zm0-7.2c0 .15-9.48.26-21.18.26s-21.19-.11-21.19-.26 9.48-.26 21.19-.26 21.18.12 21.18.26zm0-7.08c0 .14-9.48.26-21.18.26s-21.19-.12-21.19-.26 9.48-.26 21.19-.26 21.18.11 21.18.26zm0-7.21c0 .14-9.48.26-21.18.26s-21.19-.12-21.19-.26 9.48-.26 21.19-.26 21.18.11 21.18.26z" fill="#263238"/><path d="M208.44 407.07l42.58-1.18v-6.18h-42.96l.38 7.36z" opacity=".3"/><path fill="#fdb5c8" d="M275.46 398.62h42.79v60.65h-42.79z"/><path d="M275.79 458.23h42.14a5.7 5.7 0 015.7 5.7v.54h-53.55v-.54a5.7 5.7 0 015.71-5.7z" fill="#263238"/><path fill="#fdb5c8" d="M265.2 464.47h64.99v9.88H265.2z"/><path d="M318 452.61c0 .14-9.48.26-21.18.26s-21.19-.12-21.19-.26 9.48-.26 21.19-.26 21.18.11 21.18.26zm0-7.22c0 .15-9.48.26-21.18.26s-21.19-.11-21.19-.26 9.48-.26 21.19-.26 21.18.12 21.18.26zm0-7.08c0 .14-9.48.26-21.18.26s-21.19-.12-21.19-.26 9.48-.26 21.19-.26 21.18.12 21.18.26zm0-7.21c0 .14-9.48.26-21.18.26s-21.19-.12-21.19-.26 9.48-.26 21.19-.26 21.18.16 21.18.26zm0-7.1c0 .15-9.48.26-21.18.26s-21.19-.11-21.19-.26 9.48-.26 21.19-.26 21.18.13 21.18.26zm0-7.2c0 .15-9.48.26-21.18.26s-21.19-.11-21.19-.26 9.48-.26 21.19-.26 21.18.12 21.18.26zm0-7.08c0 .14-9.48.26-21.18.26s-21.19-.12-21.19-.26 9.48-.26 21.19-.26 21.18.11 21.18.26zm0-7.21c0 .14-9.48.26-21.18.26s-21.19-.12-21.19-.26 9.48-.26 21.19-.26 21.18.11 21.18.26z" fill="#263238"/><path d="M275.46 407.07l42.58-1.18v-6.18h-42.96l.38 7.36z" opacity=".3"/><path d="M320.341 233.114l1.058-4.188a1.83 1.83 0 012.222-1.326l17.142 4.328-1.958 7.756-17.133-4.325a1.83 1.83 0 01-1.326-2.223z" fill="#fdb5c8"/><path d="M320.341 233.114l1.058-4.188a1.83 1.83 0 012.222-1.326l17.142 4.328-1.958 7.756-17.133-4.325a1.83 1.83 0 01-1.326-2.223z" opacity=".3"/><path d="M316.609 247.942l1.454-5.76a3 3 0 013.643-2.174l15.969 4.032-2.938 11.635-15.93-4.022a3 3 0 01-2.198-3.711z" fill="#fdb5c8"/><path fill="#fdb5c8" d="M328.317 249.81l4.991-19.769 7.466 1.885-4.992 19.77zm17.363 60.61s31.95-1.3 29.31-31.92c-2-23.45-36.91-23.66-36.91-23.66l8.92-19.49s40.76 3.55 48.81 33.23c9.09 33.54-11.93 60.89-50.13 60.25z"/><path fill="#263238" d="M337.469 229.913l12.147 2.684-5.973 27.028-12.147-2.684z"/><path d="M344.16 256.78c0 .23-2.76-.24-6.05-1a35.59 35.59 0 01-5.91-1.64 37.84 37.84 0 016 1.13c1.65.38 3.14.74 4.21 1l1.27.34a2.12 2.12 0 01.48.17zm1.07-4.87c0 .23-2.75-.24-6.05-1a34.18 34.18 0 01-5.9-1.64 38.26 38.26 0 016 1.13c1.65.38 3.13.74 4.21 1l1.26.34a1.7 1.7 0 01.48.17zm1.29-4.91c0 .24-2.76-.23-6-1a35.59 35.59 0 01-5.91-1.64 38.05 38.05 0 016 1.13c1.64.37 3.13.73 4.2 1l1.27.33zm.86-4.82c0 .23-2.75-.24-6-1a34.47 34.47 0 01-5.91-1.64 38 38 0 016 1.13c1.65.38 3.13.74 4.21 1l1.26.34a1.7 1.7 0 01.44.17zm1.25-4.56c0 .24-2.75-.23-6-1a35.59 35.59 0 01-5.91-1.64 38 38 0 016 1.13c1.65.37 3.14.73 4.21 1l1.27.33a3.68 3.68 0 01.43.18z" fill="#455a64"/><path d="M352.66 328.63a14.23 14.23 0 01-.65-2.7c-.32-1.68-.7-4-1-6.61s-.45-5-.51-6.67a13.76 13.76 0 010-2.78 14.56 14.56 0 01.34 2.75c.15 1.7.36 4.05.66 6.64s.61 4.92.84 6.61a15.65 15.65 0 01.32 2.76zm9.93-1.55a93.17 93.17 0 01-2.91-9.54 95 95 0 01-2.41-9.69 96 96 0 012.91 9.55 97.71 97.71 0 012.41 9.68zm13.35-4.78a18.68 18.68 0 01-1.71-2.65c-1.08-1.8-2.41-4-3.89-6.52l-3.92-6.5a20.32 20.32 0 01-1.54-2.75 17.48 17.48 0 011.85 2.55c1.08 1.62 2.53 3.89 4 6.43s2.85 4.89 3.77 6.61a18.81 18.81 0 011.44 2.83zm11.23-9c-.1.11-4.07-3-8.88-7s-8.64-7.32-8.55-7.43 4.07 3 8.88 7 8.64 7.31 8.55 7.43zm7.23-12.3c-.06.14-4.76-1.7-10.51-4.09s-10.36-4.44-10.3-4.57 4.76 1.7 10.5 4.09 10.36 4.39 10.31 4.57zm3.54-13.37a24.32 24.32 0 01-3.37-.32l-8.08-1-8.09-1a20.82 20.82 0 01-3.34-.51 20.89 20.89 0 013.38.14c2.08.16 4.95.44 8.11.83s6 .8 8.08 1.15a20 20 0 013.31.71zm-1.65-13.82a17.51 17.51 0 01-3 1c-1.89.55-4.53 1.23-7.47 1.85s-5.63 1.06-7.58 1.32a17.3 17.3 0 01-3.17.27 22.63 22.63 0 013.12-.64c1.93-.35 4.59-.84 7.52-1.46s5.57-1.24 7.48-1.7a22.07 22.07 0 013.1-.64zm-4.02-13.26c.06.13-4.22 2.42-9.57 5.12s-9.74 4.78-9.81 4.65 4.22-2.42 9.57-5.12 9.74-4.77 9.81-4.65zM384 249.8c.09.11-3.47 3.33-8 7.2s-8.2 6.91-8.29 6.8 3.46-3.33 8-7.2 8.23-6.91 8.29-6.8zm-13.87-7.98c.12.07-2.13 4-5 8.83a97 97 0 01-5.48 8.57c-.12-.07 2.13-4 5-8.84a100 100 0 015.48-8.56zm-12.45-5a102.11 102.11 0 01-3 9.86c-1.78 5.4-3.34 9.74-3.47 9.7a98.49 98.49 0 013-9.87 99.79 99.79 0 013.47-9.69z" fill="#263238"/><path d="M372.68 294.18a24.63 24.63 0 01-11.58 11.88 36.5 36.5 0 01-7.84 3.06c6.11 3.26 14.09 1.31 19.43-3.1s8.16-11.41 8.35-18.34a21.73 21.73 0 00-1.73-9.6c-1.36-3-3.61-6.12-6.58-7.5a18.45 18.45 0 011.86 5.25 30.68 30.68 0 01-1.91 18.35z" opacity=".3"/><path d="M137.83 348.12a8.6 8.6 0 011 1.11c.62.73 1.46 1.82 2.46 3.21A70.45 70.45 0 01147.9 364a68.72 68.72 0 014.29 12.63c.39 1.66.65 3 .79 4a9.26 9.26 0 01.17 1.48 7.49 7.49 0 01-.37-1.44c-.2-.93-.52-2.27-.94-3.91a82 82 0 00-4.41-12.51 81.16 81.16 0 00-6.43-11.6c-.95-1.41-1.74-2.53-2.31-3.3a7.57 7.57 0 01-.86-1.23zm-4.25-3.54c.1-.11.57.15 1.06.59s.8.87.71 1-.57-.15-1.06-.59-.8-.9-.71-1zm.98-2.94c.12-.07.61.52 1.1 1.34s.78 1.53.66 1.6-.62-.52-1.11-1.34-.78-1.53-.65-1.6z" fill="#263238"/><path d="M153.06 382.72a5.24 5.24 0 01.15-.8q.21-.85.54-2.28c.47-2 1.14-4.84 1.91-8.39 1.54-7.1 3.41-17 4.78-28 .74-5.48 1-10.8 2.28-15.49a23.67 23.67 0 012.68-6.31 18.86 18.86 0 0111.72-8.23 15 15 0 012.32-.35 4.61 4.61 0 01.82 0 6.05 6.05 0 01-.81.12 21.6 21.6 0 00-2.29.44 19.47 19.47 0 00-7.54 3.86 18.55 18.55 0 00-3.85 4.4 23.25 23.25 0 00-2.59 6.22c-1.24 4.62-1.49 9.93-2.22 15.43-1.38 11-3.31 20.89-4.94 28-.82 3.55-1.55 6.4-2.07 8.36q-.4 1.41-.63 2.25a4.88 4.88 0 01-.26.77z" fill="#455a64"/><path d="M154.25 303.42a16 16 0 002.55 3.72 16.81 16.81 0 009.61 4.68 36.36 36.36 0 0010.92-.46l3.29-.58a6.67 6.67 0 011.22-.16 5.25 5.25 0 01-1.18.36c-.77.19-1.88.46-3.27.74a32.92 32.92 0 01-11 .61 16.48 16.48 0 01-9.81-4.94 10.79 10.79 0 01-1.88-2.81 4 4 0 01-.45-1.16zm-3.8-3.16c.1-.1.58.21 1.06.7s.8 1 .7 1.06-.58-.21-1.06-.69-.8-.97-.7-1.07zm1.13-1.74c.13-.08.58.43 1 1.13s.69 1.34.56 1.41-.57-.43-1-1.13-.68-1.34-.56-1.41zm3.13-.23c.15 0 .17.61.06 1.32s-.32 1.25-.46 1.23-.17-.61-.06-1.32.32-1.25.46-1.23z" fill="#263238"/><path d="M164.13 337.34a10.35 10.35 0 01-.08 1.78c-.09 1.15-.26 2.8-.5 4.83-.47 4.08-1.3 9.68-2.55 15.81s-2.69 11.62-3.84 15.56c-.58 2-1.08 3.55-1.44 4.63a12.65 12.65 0 01-.62 1.67 13.26 13.26 0 01.42-1.73c.33-1.18.76-2.76 1.28-4.67 1.06-4 2.44-9.44 3.69-15.56s2.13-11.7 2.7-15.75c.27-2 .49-3.59.65-4.81a14.78 14.78 0 01.29-1.76zm17.73-23.15c0 .1-1.43.11-3.64.69a18.05 18.05 0 00-12.54 11.58c-.76 2.15-.88 3.59-1 3.57a2.79 2.79 0 010-1 15 15 0 01.58-2.68 17.37 17.37 0 0112.8-11.82 15.36 15.36 0 012.72-.37 3.48 3.48 0 011.08.03z" fill="#455a64"/><path d="M157.8 382.51a5.24 5.24 0 010-.75c0-.49.12-1.22.25-2.15a20 20 0 012.37-7.57c.84-1.47 2-2.91 2.94-4.61a9.67 9.67 0 001-2.78 11.45 11.45 0 00.08-3.16c-.16-2.17-.79-4.51-.3-7a8.54 8.54 0 011.6-3.39c.73-1 1.58-2 2.25-3a6.36 6.36 0 001.12-3.41 14.83 14.83 0 00-.48-3.57 21.11 21.11 0 01-.58-7 19.9 19.9 0 0110.54-15.89 17.52 17.52 0 012-.88 4.26 4.26 0 01.72-.23 3.85 3.85 0 01-.68.32c-.45.21-1.11.51-1.92 1a20.47 20.47 0 00-5.95 5.08 19.71 19.71 0 00-4.21 10.67 20.85 20.85 0 00.6 6.82 15.28 15.28 0 01.5 3.69 6.87 6.87 0 01-1.21 3.68c-.7 1.11-1.55 2.05-2.26 3.05a7.83 7.83 0 00-1.52 3.19c-.47 2.31.12 4.62.28 6.84a12 12 0 01-.11 3.29 10.21 10.21 0 01-1.11 2.9c-1 1.74-2.16 3.16-3 4.59a20.78 20.78 0 00-2.48 7.42c-.15.88-.26 1.59-.35 2.12a3.76 3.76 0 01-.09.73z" fill="#455a64"/><path d="M183 324.55a9.45 9.45 0 00-2.46.35 9.77 9.77 0 00-5.17 4.13c-1.6 2.39-2.31 5.82-2.69 9.6a121.14 121.14 0 01-1.79 12.37 200.58 200.58 0 01-6 21.82c-.9 2.75-1.65 5-2.19 6.49-.25.72-.46 1.3-.62 1.75a2.49 2.49 0 01-.26.6 4.25 4.25 0 01.18-.66c.13-.46.31-1.05.53-1.78l2-6.54c1.69-5.53 4-13.18 5.8-21.82.88-4.31 1.46-8.46 1.86-12.27s1.17-7.3 2.87-9.74a9.74 9.74 0 015.42-4.12 6.25 6.25 0 011.86-.23 4.13 4.13 0 01.66.05z" fill="#e0e0e0"/><path d="M146.29 378.93h19.37s-11.75 93.29-76.61 93l.83-18.19S134 451 146.29 378.93zm-83.223 75.372l.076-4.3a1.83 1.83 0 011.862-1.797l17.627.31-.14 8-17.628-.311a1.83 1.83 0 01-1.797-1.902z" fill="#fdb5c8"/><path d="M63.067 454.302l.076-4.3a1.83 1.83 0 011.862-1.797l17.627.31-.14 8-17.628-.311a1.83 1.83 0 01-1.797-1.902z" opacity=".3"/><path d="M63.013 470.67l.119-5.94a3 3 0 013.06-2.94l16.47.33-.24 12-16.41-.329a3 3 0 01-3-3.121z" fill="#fdb5c8"/><path fill="#fdb5c8" d="M74.626 468.746l.36-20.386 7.698.135-.36 20.387z"/><path fill="#263238" d="M79.008 447.28l12.439-.153.338 27.678-12.44.152z"/><path d="M91.64 471.9c0 .23-2.74.4-6.11.42a34.37 34.37 0 01-6.13-.26 38.67 38.67 0 016.12-.27h5.64a2.44 2.44 0 01.48.11zm-.06-4.98c0 .23-2.74.39-6.11.41a35 35 0 01-6.13-.25 38.67 38.67 0 016.12-.27h5.64a1.75 1.75 0 01.48.11zm.14-5.03c0 .23-2.73.39-6.11.41a34.92 34.92 0 01-6.12-.25 38.67 38.67 0 016.12-.27h5.63a2 2 0 01.48.11zm-.26-4.89c0 .23-2.74.4-6.12.42a34.29 34.29 0 01-6.12-.26 38.67 38.67 0 016.12-.27h5.64a2.57 2.57 0 01.48.11zm.18-4.77c0 .23-2.74.4-6.11.42a36.2 36.2 0 01-6.13-.25 36 36 0 016.12-.27h5.64a2.44 2.44 0 01.48.1z" fill="#455a64"/><path d="M98.44 471s0 .16.06.5v.58l-.17-.56a83.2 83.2 0 01-1.91-9.16c-.43-2.69-.72-5.13-.89-6.91a14.66 14.66 0 01-.13-2.89 18.89 18.89 0 01.5 2.85c.25 1.76.6 4.19 1 6.87.69 4.34 1.4 8 1.55 9.2h-.16c.09-.34.12-.48.15-.48zm9.2-1.79a92.86 92.86 0 01-3.22-9.42 92.86 92.86 0 01-2.73-9.57 92.86 92.86 0 013.22 9.42 92.86 92.86 0 012.73 9.57zm10.87-4.59a98.81 98.81 0 01-4.78-9.06c-2.5-5.08-4.43-9.24-4.3-9.3a99.8 99.8 0 014.77 9.07c2.51 5.07 4.43 9.23 4.31 9.29zm9.63-7.2a91.87 91.87 0 01-6.18-7.91 98.59 98.59 0 01-5.77-8.23 96.34 96.34 0 016.19 7.92c3.29 4.46 5.87 8.14 5.76 8.22zm8.41-7.98a93.69 93.69 0 01-7.2-6.85 96.19 96.19 0 01-6.82-7.22 94.54 94.54 0 017.19 6.85 97.73 97.73 0 016.83 7.22zm6.93-9.58a14.64 14.64 0 01-2.51-1.34l-5.92-3.46-5.91-3.45a15.52 15.52 0 01-2.41-1.53 15.05 15.05 0 012.58 1.21c1.56.81 3.69 2 6 3.32s4.37 2.64 5.84 3.6a15.72 15.72 0 012.33 1.65zm4.69-9.7a13.82 13.82 0 01-2.43-1.09c-1.47-.72-3.51-1.71-5.77-2.76s-4.34-1.95-5.84-2.61a15.48 15.48 0 01-2.41-1.14 11.93 11.93 0 012.54.8c1.54.57 3.65 1.43 5.93 2.48s4.29 2.1 5.72 2.9a13.26 13.26 0 012.26 1.42zm5.6-9.38a13.93 13.93 0 01-2.77-.46c-1.7-.37-4-.94-6.57-1.68s-4.82-1.51-6.45-2.11a14.17 14.17 0 01-2.59-1.09 16.24 16.24 0 012.71.74c1.65.51 3.94 1.22 6.47 2s4.84 1.36 6.51 1.82a16.1 16.1 0 012.69.78zm2.99-9.46a84.29 84.29 0 01-9.25-.92 84.45 84.45 0 01-9.18-1.43 84.06 84.06 0 019.25.92 79 79 0 019.18 1.43zm3.18-9.25a12.64 12.64 0 01-2.69-.08c-1.66-.12-3.95-.32-6.47-.57s-4.81-.51-6.45-.73a13.79 13.79 0 01-2.66-.45 14.26 14.26 0 012.7.09c1.66.12 3.94.32 6.46.57s4.8.51 6.45.72a14.83 14.83 0 012.66.45zm2.45-8.96a92.12 92.12 0 01-9.64.56 86.39 86.39 0 01-9.65 0 92.12 92.12 0 019.64-.56 89.44 89.44 0 019.65 0zm1.01-7.32a13.17 13.17 0 01-2.64.41c-1.64.17-3.91.31-6.42.32s-4.79-.11-6.43-.26a12.81 12.81 0 01-2.64-.38 15 15 0 012.66 0c1.64.06 3.9.13 6.4.11s4.77-.1 6.4-.17a15 15 0 012.67-.03z" fill="#263238"/><path d="M147.13 381.7a.72.72 0 010 .25v.74c0 .65 0 1.61-.07 2.84a74 74 0 01-1.23 10.39 78.32 78.32 0 01-4.35 14.89 77.44 77.44 0 01-22 30.58 78.86 78.86 0 01-12.76 8.83 73.1 73.1 0 01-9.47 4.45c-1.14.46-2.06.74-2.67 1l-.7.23a.8.8 0 01-.25.06.7.7 0 01.23-.11l.68-.28c.6-.25 1.51-.56 2.64-1a82.14 82.14 0 009.36-4.58 79.89 79.89 0 0039-54 81.57 81.57 0 001.39-10.33c.11-1.22.11-2.18.16-2.83v-.74a.87.87 0 01.04-.39z" fill="#fff"/><path d="M236.92 273s-10.72-14.51-35.53-12.36c0 0 25.25-19.4 10.39-39.33 0 0 31.89 9.42 32.25-30.44 0 0 5.8 37 35.88 26.46 0 0 2.14 29.36 22.95 23.93-10.07 9.9-19.86 18.63-17.86 31.29" fill="#fdb5c8"/><path d="M236.92 273s-10.72-14.51-35.53-12.36c0 0 25.25-19.4 10.39-39.33 0 0 31.89 9.42 32.25-30.44 0 0 5.8 37 35.88 26.46 0 0 2.14 29.36 22.95 23.93-10.07 9.9-19.86 18.63-17.86 31.29" fill="#fff" opacity=".8"/><path d="M236.92 273s-.25-16.92-20.18-15.19c0 0 18.53-10.69 6.6-26.7 0 0 25.62 7.57 25.91-24.45 0 0 4.65 29.69 28.82 21.25 0 0-2.89 21.54 13.84 17.17-8.09 8-11.37 17-9.77 27.2" fill="#fdb5c8"/><path d="M236.92 273s-.25-16.92-20.18-15.19c0 0 18.53-10.69 6.6-26.7 0 0 25.62 7.57 25.91-24.45 0 0 4.65 29.69 28.82 21.25 0 0-2.89 21.54 13.84 17.17-8.09 8-11.37 17-9.77 27.2" fill="#fff" opacity=".6"/><path d="M269.65 160.76a5.13 5.13 0 01-.24.63l-.79 1.76c-.35.76-.77 1.69-1.22 2.8s-1 2.33-1.51 3.74-1.13 2.93-1.68 4.6-1.12 3.46-1.7 5.35c-1.09 3.8-2.13 8-2.95 12.52s-1.3 8.82-1.6 12.76c-.12 2-.25 3.85-.27 5.61s-.05 3.4 0 4.89.08 2.85.12 4 .1 2.21.17 3 .09 1.43.12 1.92a3 3 0 010 .68 5.34 5.34 0 01-.11-.67q-.07-.74-.21-1.92c-.1-.83-.2-1.85-.26-3s-.18-2.55-.19-4-.08-3.14 0-4.91.12-3.65.22-5.63a113.18 113.18 0 014.57-25.39c.59-1.89 1.14-3.7 1.75-5.35s1.18-3.2 1.74-4.59 1.12-2.64 1.6-3.73.92-2 1.3-2.77l.87-1.72a3 3 0 01.27-.58zm-71.58-6.87a33 33 0 00-6-4.49 33.26 33.26 0 00-7.06-2.52 6.79 6.79 0 012.23.22 18.55 18.55 0 015.08 1.84 18.9 18.9 0 014.34 3.21 6.55 6.55 0 011.41 1.74zm7.68 43.53a2.34 2.34 0 01.42.4l1.11 1.19c1 1 2.31 2.59 3.91 4.56s3.43 4.37 5.36 7.11 3.92 5.86 5.86 9.2 3.62 6.64 5.06 9.67 2.6 5.82 3.5 8.19 1.59 4.31 2 5.66q.28.94.48 1.56a2.26 2.26 0 01.13.56 2.26 2.26 0 01-.23-.53l-.58-1.52c-.47-1.33-1.2-3.25-2.15-5.59s-2.16-5.1-3.59-8.12-3.15-6.27-5.08-9.62-3.92-6.42-5.8-9.18-3.69-5.18-5.26-7.16-2.85-3.58-3.77-4.66l-1-1.25a2.44 2.44 0 01-.37-.47zm68.76 5.11a1.72 1.72 0 01-.21.46l-.67 1.25c-.31.54-.67 1.2-1.06 2s-.87 1.66-1.32 2.67c-1 2-2 4.42-3 7.16a78.08 78.08 0 00-4.16 18.47c-.27 2.9-.39 5.53-.38 7.74 0 1.1 0 2.1.05 3s.06 1.63.1 2.25.05 1 .07 1.42a1.37 1.37 0 010 .5 2.25 2.25 0 01-.09-.49c-.05-.38-.1-.85-.17-1.42s-.15-1.37-.19-2.25-.13-1.88-.13-3a71 71 0 01.28-7.79 72.75 72.75 0 014.18-18.58 70.42 70.42 0 013.09-7.16c.47-1 1-1.87 1.4-2.65s.8-1.43 1.13-2 .56-.88.76-1.21a2 2 0 01.32-.37zm19.64 3.88c.05.06-.83.71-2.16 1.87a36.84 36.84 0 00-8.52 10.7 26.43 26.43 0 01-1.35 2.53 11.4 11.4 0 011-2.7 30.94 30.94 0 013.68-5.9 30.11 30.11 0 014.93-4.91 11.07 11.07 0 012.42-1.59zm-83.5 25.5a11.93 11.93 0 012.44 1.53 34.6 34.6 0 015.16 4.68 33.84 33.84 0 014.12 5.61 11.66 11.66 0 011.27 2.59 27.69 27.69 0 01-1.58-2.4 45 45 0 00-4.2-5.46 45.57 45.57 0 00-5-4.73 22.61 22.61 0 01-2.21-1.82zm-5.07-9.3c-.08.14-2.12-1-4.88-1.7s-5.09-.71-5.09-.87a14.5 14.5 0 0110 2.57z" fill="#fdb5c8"/><path d="M185 191.31a6.85 6.85 0 01.66-1.66l-.91-1.38 1.9-2 1.41.85a7.26 7.26 0 011.64-.71l.34-1.61 2.73-.05.39 1.61a7 7 0 011.66.65l1.38-.9 2 1.9-.86 1.41a6.31 6.31 0 01.71 1.64l1.62.33v2.74l-1.6.39a6.78 6.78 0 01-.66 1.65l.91 1.39-1.9 2-1.42-.86a6.25 6.25 0 01-1.63.71L193 201h-2.73l-.39-1.6a6.85 6.85 0 01-1.66-.66l-1.38.9-2-1.9.86-1.41a6.25 6.25 0 01-.71-1.63l-1.62-.34v-2.73l1.6-.39zm3.6 1.55a2.93 2.93 0 102.88-3 2.93 2.93 0 00-2.87 3z" fill="#fdb5c8" fill-rule="evenodd"/><path d="M299.57 265.2a5.17 5.17 0 01.48-1.22l-.67-1 1.41-1.45 1 .63a5.13 5.13 0 011.2-.52l.25-1.19h2l.29 1.19a4.77 4.77 0 011.22.48l1-.67 1.45 1.41-.63 1a5 5 0 01.52 1.2l1.19.25v2l-1.19.29a5.17 5.17 0 01-.48 1.22l.66 1-1.4 1.45-1-.63a5 5 0 01-1.21.52l-.24 1.19h-2l-.29-1.18a5.17 5.17 0 01-1.22-.48l-1 .66-1.41-1.35.63-1a5 5 0 01-.52-1.21l-1.19-.25v-2l1.19-.29zm2.66 1.14a2.16 2.16 0 104.32-.07 2.16 2.16 0 10-4.32.07z" fill="#455a64" fill-rule="evenodd"/><path fill="#e0e0e0" d="M275.022 188.152l4.476-9.421 4.263 2.025-4.475 9.421z"/><path d="M275 188.16a10.74 10.74 0 011.23.49c.76.32 1.83.78 3.11 1.36l-.25.09c1.12-2.45 2.67-5.79 4.41-9.45-.11-.31.15.43.12.35h-.13l-.14-.06-.28-.14-.56-.26-1.08-.52-2.06-1 .33-.11c-1.29 2.68-2.45 5-3.28 6.64-.4.76-.73 1.41-1 1.95a4.56 4.56 0 01-.41.72 3.13 3.13 0 01.26-.68c.23-.54.52-1.19.85-1.95.75-1.69 1.83-4.1 3.14-6.89l.11-.23.22.11 2.07 1 1.09.51.55.26.28.14.14.06h.14c0-.08.23.66.12.35-1.74 3.66-3.34 7-4.54 9.39l-.08.17-.17-.09c-1.34-.66-2.41-1.21-3.12-1.59a7.68 7.68 0 01-1.07-.62z" fill="#263238"/><path d="M283.35 175.75a4.34 4.34 0 00-5.79 2.06l7.86 3.74a4.35 4.35 0 00-2.07-5.8z" fill="#e0e0e0"/><path d="M283.35 175.75a1.2 1.2 0 01.49.18 4.22 4.22 0 011.12.9 4.28 4.28 0 011 2 4.45 4.45 0 01-.32 2.83l-.09.22-.23-.1-3.93-1.85-3.94-1.93-.22-.1.11-.22a4.54 4.54 0 012-2 4.4 4.4 0 012.17-.48 3.86 3.86 0 011.4.3c.31.14.46.24.44.26a8.45 8.45 0 00-1.84-.27 4.22 4.22 0 00-2 .55 4.16 4.16 0 00-1.76 1.89l-.11-.32 3.94 1.85 3.92 1.88-.32.12a4.19 4.19 0 00.36-2.56 4.35 4.35 0 00-.83-1.88 8 8 0 00-1.36-1.27z" fill="#263238"/><path d="M283.45 178.24a2.74 2.74 0 00-.86-2.8" fill="#e0e0e0"/><path d="M282.59 175.44c.07-.13.8.27 1.08 1.2s-.09 1.66-.22 1.6 0-.71-.27-1.45-.68-1.23-.59-1.35zm-3.94 4.63a9 9 0 012.28.94 9.17 9.17 0 012.23 1.09 4.68 4.68 0 01-2.44-.62c-1.28-.57-2.15-1.3-2.07-1.41zm-.53 1.1a9.71 9.71 0 012.29 1 9.17 9.17 0 012.22 1.08 4.52 4.52 0 01-2.44-.61c-1.27-.64-2.19-1.35-2.07-1.47zm-.52 1.11a9 9 0 012.28.94 9.41 9.41 0 012.23 1.09 4.72 4.72 0 01-2.44-.61c-1.28-.58-2.15-1.31-2.07-1.42zm-.53 1.1a9.71 9.71 0 012.29 1 9.17 9.17 0 012.22 1.08 4.52 4.52 0 01-2.44-.61c-1.27-.62-2.14-1.35-2.07-1.47zm-.53 1.11a9.26 9.26 0 012.29.94 9.87 9.87 0 012.23 1.09 7.15 7.15 0 01-4.52-2zm-.54 1.11a9 9 0 012.29.94 9.21 9.21 0 012.22 1.09 7.23 7.23 0 01-4.51-2zm-.51 1.1a9.54 9.54 0 012.29 1 9.17 9.17 0 012.22 1.08 4.48 4.48 0 01-2.43-.61c-1.28-.62-2.16-1.35-2.08-1.47z" fill="#263238"/><path fill="#e0e0e0" d="M171.334 264.26l9.498-4.308 1.95 4.298-9.498 4.309z"/><path d="M182.77 264.25a11.2 11.2 0 01-.62-1.17c-.37-.73-.89-1.77-1.5-3l.25.09c-2.44 1.15-5.78 2.7-9.46 4.37-.12.31.15-.42.13-.34v.07l.06.14.13.28.25.56c.17.37.33.73.5 1.09l.93 2.09-.33-.12c2.73-1.22 5.09-2.23 6.8-3l2-.84a5 5 0 01.78-.29 3 3 0 01-.63.36l-1.91.94c-1.66.8-4 1.95-6.85 3.24l-.23.1-.1-.23c-.31-.66-.62-1.36-1-2.07-.17-.36-.33-.73-.5-1.1l-.25-.55-.13-.29-.07-.14v-.12l.13-.34c3.69-1.68 7.05-3.17 9.53-4.24l.17-.08.08.17c.59 1.38 1.05 2.49 1.35 3.24a5.89 5.89 0 01.49 1.18z" fill="#263238"/><path d="M168.41 268.36a4.35 4.35 0 005.76 2.17l-3.6-7.93a4.34 4.34 0 00-2.16 5.76z" fill="#e0e0e0"/><path d="M168.41 268.36s-.12-.14-.26-.44a4.09 4.09 0 01-.27-1.42 4.34 4.34 0 01.52-2.16 4.59 4.59 0 012.07-2l.22-.1.1.22c.57 1.23 1.18 2.56 1.82 4s1.22 2.73 1.78 4l.1.22-.22.1a4.52 4.52 0 01-2.84.26 4.28 4.28 0 01-2-1 3.9 3.9 0 01-.88-1.13c-.15-.31-.2-.48-.17-.49a7.9 7.9 0 001.23 1.4 4.26 4.26 0 004.43.55l-.12.32-1.82-4c-.62-1.4-1.22-2.73-1.78-4l.32.12a4.24 4.24 0 00-2.5 3.69 8.47 8.47 0 00.27 1.86z" fill="#263238"/><path d="M169.94 266.4a2.74 2.74 0 00-1.15 2.69" fill="#e0e0e0"/><path d="M168.79 269.09c-.13.06-.44-.73-.06-1.61s1.16-1.21 1.21-1.08-.43.56-.73 1.28-.27 1.38-.42 1.41zm6-.99a9 9 0 01-1.14-2.19 9.38 9.38 0 01-1-2.27 7.13 7.13 0 012.14 4.46zm1.11-.5a9.58 9.58 0 01-1.14-2.2 9.79 9.79 0 01-1-2.26c.11-.09.86.77 1.46 2a4.5 4.5 0 01.68 2.46zm1.1-.51a9.19 9.19 0 01-1.14-2.19 9.38 9.38 0 01-1-2.27 7.13 7.13 0 012.14 4.46zm1.13-.5a9.85 9.85 0 01-1.14-2.2 9.57 9.57 0 01-1-2.27 4.67 4.67 0 011.46 2 4.53 4.53 0 01.68 2.47zm1.12-.51a9.14 9.14 0 01-1.14-2.2 9.4 9.4 0 01-1-2.26 7.13 7.13 0 012.14 4.46zm1.11-.51a9.37 9.37 0 01-1.14-2.19 9.57 9.57 0 01-1-2.27 4.67 4.67 0 011.46 2 4.52 4.52 0 01.68 2.46zm1.12-.5a40.24 40.24 0 01-2.14-4.46c.11-.09.87.77 1.47 2a4.61 4.61 0 01.67 2.46z" fill="#263238"/><path d="M201.52 142.38s12.11 12 15.13 19.43c2.87 7.11 4.77 13.73 4.77 13.73s3.12-5.46 6.63 0 20.1 71.77 22.83 96.73h10.57s-4.92-41.73-7.26-46.41-4.3-6.24-4.3-6.24-2.73-17.56-4.68-20.29a13.16 13.16 0 00-4.29-3.9s-3.51-19.11-8.58-23-9-1.95-9-1.95-3.2-20.48-21.82-28.1z" fill="#fdb5c8"/><path d="M300.67 231a55.81 55.81 0 00-7 2.38 58.26 58.26 0 00-6.41 3.72 6.81 6.81 0 011.62-1.48 24.09 24.09 0 019.62-4.37 7.24 7.24 0 012.17-.25z" fill="#455a64"/><path d="M300.26 228.86a72.81 72.81 0 00-7.06 3.14c-3.73 2.06-6.28 4.45-6.39 4.32a8.14 8.14 0 011.6-1.63 28 28 0 014.54-3.14 26.89 26.89 0 015.07-2.18 7.88 7.88 0 012.24-.51zm-2.05 5.14c0 .16-2.2.19-4.79.94s-4.49 1.85-4.57 1.72a13.27 13.27 0 019.36-2.66z" fill="#455a64"/><path d="M274.88 272.17c-1.77-14 2.83-30.42 14-38.28l2.66 2.17s-13.91 8.28-12.89 36.21" fill="#263238"/><path d="M217.41 252a33.58 33.58 0 00-5.37 2.39 34.87 34.87 0 00-4.56 3.71 13.8 13.8 0 019.93-6.1zm-.28-1.24a51.19 51.19 0 01-5.44 2.1 50.87 50.87 0 01-5.5 2 24.23 24.23 0 015.32-2.46 23.76 23.76 0 015.62-1.64z" fill="#455a64"/><path d="M247.94 275.62l-4.84-1.26a10.74 10.74 0 00-3.65-11.13 9.21 9.21 0 01-5.31 7.13 7.86 7.86 0 01-6.65-.42 6.93 6.93 0 01-3.63-4.72 7.86 7.86 0 013.87-8 9.8 9.8 0 013.66-1.24 3.51 3.51 0 00-.36-.29 13.38 13.38 0 00-15.08-.41l-2.82-4.13a18.33 18.33 0 0120.94.56 14.92 14.92 0 014.35 5.22 15.83 15.83 0 019.52 18.72zM233 260.83a5.35 5.35 0 00-2.76.67 2.93 2.93 0 00-1.52 2.75 2.08 2.08 0 001.09 1.29 2.93 2.93 0 002.37.2 4.5 4.5 0 002.32-4.58v-.2a8.44 8.44 0 00-1.5-.13z" fill="#263238"/><path d="M207.34 182.76a7.84 7.84 0 011.34.71c.85.48 2 1.24 3.48 2.23a61.07 61.07 0 014.85 3.78 62 62 0 0110.07 11.14 58.32 58.32 0 013.27 5.19c.85 1.53 1.49 2.79 1.88 3.69a7.7 7.7 0 01.57 1.4 8 8 0 01-.75-1.31c-.45-.87-1.13-2.1-2-3.59s-2-3.24-3.34-5.11a67.21 67.21 0 00-10-11C215 188.33 213.35 187 212 186s-2.56-1.83-3.38-2.36a8.61 8.61 0 01-1.28-.88z" fill="#fdb5c8"/><path d="M190.42 294.18h.85v50.51h-.85a9 9 0 01-9-9v-32.55a9 9 0 019-8.96zm145.45 0h.94a8.88 8.88 0 018.88 8.88v32.76a8.88 8.88 0 01-8.88 8.88h-.94v-50.52z" fill="#263238"/><rect x="188.69" y="284.32" width="149.39" height="109.99" rx="14.12" fill="#fdb5c8"/><path d="M282.39 296a34.23 34.23 0 00-34.23 34.23h68.47A34.23 34.23 0 00282.39 296z" fill="#fff"/><path d="M310 328.58h3.68a6.73 6.73 0 011.53.1 7.86 7.86 0 01-1.52.11h-8.49a1.75 1.75 0 01-.41 0 1.26 1.26 0 01.41 0l1.12-.05zm-2.42-10.35c2.6-1.24 4.76-2.11 4.83-2s-2 1.24-4.62 2.41a34.84 34.84 0 01-4.83 2 35 35 0 014.62-2.41zm-6.42-8.46c1.9-2.16 3.54-3.82 3.67-3.71s-1.35 1.93-3.29 4.05a33.89 33.89 0 01-3.67 3.7 34.86 34.86 0 013.29-4.04zm-9.16-5.41a23 23 0 012.05-4.79c.16.06-.54 2.28-1.57 5a35.67 35.67 0 01-2.06 4.79 34.19 34.19 0 011.58-5zm-10.49-1.78c0-2.88.08-5.21.25-5.21s.28 2.33.26 5.21a33.85 33.85 0 01-.26 5.21 33.18 33.18 0 01-.25-5.21zm-10.46 1.96c-1-2.69-1.74-4.91-1.58-5s1.08 2.08 2 4.79a32.38 32.38 0 011.58 5 34.94 34.94 0 01-2-4.79zm-9.05 5.57c-1.94-2.12-3.42-3.93-3.29-4.05s1.77 1.55 3.67 3.71a34.86 34.86 0 013.29 4 33.89 33.89 0 01-3.67-3.66zm-6.27 8.59c-2.63-1.18-4.7-2.26-4.63-2.42s2.24.72 4.84 2a35.13 35.13 0 014.62 2.41 34.91 34.91 0 01-4.83-1.99zm-2.18 10.13h-3.69a7.86 7.86 0 01-1.52-.11 6.73 6.73 0 011.53-.1h3.68l3.68.06 1.12.05a1.17 1.17 0 01.4 0 1.6 1.6 0 01-.4 0h-1.12z" fill="#e0e0e0"/><path d="M225.31 302a4.55 4.55 0 11-4.55-4.54 4.55 4.55 0 014.55 4.54z" fill="#fff"/><path d="M225.31 315.7a4.55 4.55 0 11-4.55-4.54 4.55 4.55 0 014.55 4.54z" fill="#455a64"/><path d="M311.43 384.82v-3.3c0-2.17 0-5.33-.05-9.38 0-8.13-.06-19.85-.1-34.3l.19.19-93.17.07.26-.26v47l-.25-.24 66.92.11 19.3.07h6.96-6.85l-19.25.07-67.08.12H218v-47.51h.27l93.17.07h.2v.19c-.05 14.5-.08 26.26-.11 34.41v11.76c0 .56-.1.93-.1.93zm-107.33 9.27h118.57v.59a6.23 6.23 0 01-6.23 6.23h-106.1a6.23 6.23 0 01-6.23-6.23v-.59z" fill="#263238"/><path d="M301.47 344.43a2.81 2.81 0 001.93 3 3.11 3.11 0 003.39-1.24 3.49 3.49 0 000-3.67 3.48 3.48 0 01-.78 2.35 2.56 2.56 0 01-2.26.88 2 2 0 01-1.69-1.64" opacity=".3"/><path d="M306.81 343.32a2.77 2.77 0 11-2.76-2.76 2.76 2.76 0 012.76 2.76z" fill="#e0e0e0"/><path d="M306.81 343.32a5.24 5.24 0 01-.18-.65 2.78 2.78 0 00-1-1.4 2.61 2.61 0 00-2.42-.32 2.53 2.53 0 000 4.74 2.61 2.61 0 002.42-.32 2.78 2.78 0 001-1.4 6 6 0 01.18-.65s.09.25 0 .7a2.7 2.7 0 01-1 1.64 2.92 2.92 0 01-2.81.48 3 3 0 010-5.64 2.92 2.92 0 012.81.48 2.7 2.7 0 011 1.64c.09.45.03.7 0 .7z" fill="#263238"/><path d="M305.32 342.14c.05.14-.6.48-1.21 1.12s-.93 1.29-1.07 1.24 0-.87.7-1.61 1.55-.89 1.58-.75z" fill="#263238"/><path d="M305.32 344.18c-.12.08-.58-.42-1.26-.87s-1.32-.7-1.29-.85.81-.11 1.58.42 1.09 1.24.97 1.3z" fill="#263238"/><path d="M302.76 378.63a2.83 2.83 0 001.94 3 3.11 3.11 0 003.39-1.24 3.49 3.49 0 00.05-3.66 3.43 3.43 0 01-.79 2.34 2.55 2.55 0 01-2.25.88 2 2 0 01-1.7-1.63" opacity=".3"/><circle cx="305.35" cy="377.51" r="2.76" fill="#e0e0e0"/><path d="M308.11 377.51c-.05 0-.06-.24-.19-.65a2.74 2.74 0 00-1-1.4 2.62 2.62 0 00-2.42-.32 2.54 2.54 0 102.42 4.42 2.7 2.7 0 001-1.4c.13-.4.14-.65.19-.65s.09.25 0 .7a2.74 2.74 0 01-1 1.65 2.93 2.93 0 01-2.81.47 3 3 0 010-5.64 3 3 0 012.81.48 2.7 2.7 0 011 1.64c.09.46.03.71 0 .7z" fill="#263238"/><path d="M306.62 376.33c.05.14-.61.48-1.21 1.12s-.93 1.29-1.08 1.25 0-.88.7-1.61 1.56-.89 1.59-.76z" fill="#263238"/><path d="M306.62 378.37c-.13.09-.59-.42-1.27-.87s-1.31-.7-1.28-.85.8-.11 1.58.42 1.09 1.24.97 1.3z" fill="#263238"/><path d="M222.38 344.39a2.83 2.83 0 001.94 3 3.12 3.12 0 003.39-1.25 3.49 3.49 0 000-3.66 3.45 3.45 0 01-.79 2.35 2.55 2.55 0 01-2.25.88 2 2 0 01-1.7-1.64" opacity=".3"/><circle cx="224.96" cy="343.28" r="2.76" fill="#e0e0e0"/><path d="M227.73 343.28s-.06-.25-.19-.65a2.67 2.67 0 00-1-1.4 2.59 2.59 0 00-2.41-.32 2.53 2.53 0 000 4.74 2.62 2.62 0 002.42-.32 2.7 2.7 0 001-1.4c.13-.4.14-.65.19-.65a1.21 1.21 0 010 .7 2.75 2.75 0 01-1 1.64 2.93 2.93 0 01-2.81.48 3 3 0 010-5.64 2.93 2.93 0 012.81.48 2.75 2.75 0 011 1.64 1.21 1.21 0 01-.01.7z" fill="#263238"/><path d="M226.24 342.1c0 .14-.61.48-1.21 1.12s-.93 1.29-1.08 1.24 0-.88.7-1.61 1.56-.85 1.59-.75z" fill="#263238"/><path d="M226.24 344.14c-.13.08-.59-.42-1.27-.87s-1.31-.7-1.28-.85.8-.11 1.58.41 1.09 1.24.97 1.31z" fill="#263238"/><path d="M221.8 378.29a2.8 2.8 0 001.93 3 3.11 3.11 0 003.39-1.24 3.47 3.47 0 000-3.66 3.47 3.47 0 01-.78 2.34 2.57 2.57 0 01-2.26.89 2 2 0 01-1.69-1.64" opacity=".3"/><circle cx="224.38" cy="377.17" r="2.76" fill="#e0e0e0"/><path d="M227.14 377.17s0-.24-.18-.65a2.87 2.87 0 00-1-1.4 2.61 2.61 0 00-2.42-.32 2.54 2.54 0 102.42 4.42 2.78 2.78 0 001-1.4 6 6 0 01.18-.65s.09.25 0 .7a2.72 2.72 0 01-1 1.65 3 3 0 01-2.81.48 3 3 0 010-5.65 3 3 0 012.81.48 2.72 2.72 0 011 1.65c.09.45.03.7 0 .69z" fill="#263238"/><path d="M225.65 376c0 .14-.6.48-1.21 1.12s-.93 1.29-1.07 1.25 0-.88.7-1.61 1.55-.9 1.58-.76z" fill="#263238"/><path d="M225.65 378c-.12.08-.58-.43-1.26-.88s-1.32-.7-1.29-.85.81-.11 1.58.42 1.09 1.31.97 1.31z" fill="#263238"/><path d="M218.25 385.08c10.82 2.35 23.46 2.44 35.15 1.87 5.62-.28 11.79-.63 16.29 2.76 1 .74 2.14 1.71 3.3 1.28 1.68-.63 1.74-3.71 3.54-3.77.9 0 1.59.83 1.88 1.68a13 13 0 00.82 2.56c.46.78 1.55 1.3 2.27.75 1.14-.87-.18-2.74.25-4.11s2.47-1.53 3.85-1 2.72 1.54 4.19 1.32a8.19 8.19 0 002.83-1.45c2.63-1.61 5.88-1.7 9-1.76 3.25-.05 6.6-.36 9.85-.42z" opacity=".3"/><path d="M292.77 349.79a2.22 2.22 0 01-.51.18 11.73 11.73 0 00-1.45.49 22 22 0 00-4.88 2.76c-1.95 1.36-4.1 3.24-6.83 4.9a15.6 15.6 0 01-4.63 1.93 26.2 26.2 0 01-5.34.4c-3.65 0-6.84 1.48-9.6 3s-5.29 2.84-7.26 4.17a26.22 26.22 0 00-4.34 3.56c-.93 1-1.36 1.55-1.4 1.52s.08-.16.28-.45a14 14 0 011-1.21 23.79 23.79 0 014.28-3.72 78 78 0 017.24-4.3 33.09 33.09 0 014.52-2.1 15.5 15.5 0 015.29-.95 26.23 26.23 0 005.25-.38 15.77 15.77 0 004.5-1.84c2.68-1.61 4.87-3.46 6.86-4.79a20.61 20.61 0 015-2.65 8.71 8.71 0 011.49-.4 2 2 0 01.53-.12zm-23.71 7.92a13 13 0 01-2.9-.45 43.59 43.59 0 01-6.77-2.1 42.76 42.76 0 01-6.34-3.16 12.39 12.39 0 01-2.41-1.69 25.49 25.49 0 012.59 1.37 59.77 59.77 0 0013 5.23 21 21 0 012.83.8z" fill="#263238"/><path d="M284.1 325.07c.77-.41 23.24-7.64 23.24-7.64l-21.48 12z" fill="#fdb5c8"/><path d="M281.76 322.64a7.6 7.6 0 00-7.6 7.6h15.2a7.6 7.6 0 00-7.6-7.6zm-76.41 71.45c-.15 0-.26-24.42-.26-54.54s.11-54.55.26-54.55.26 24.42.26 54.55-.12 54.54-.26 54.54zm118.85 0c-.15 0-.26-24.42-.26-54.54s.11-54.55.26-54.55.26 24.42.26 54.55-.12 54.54-.26 54.54z" fill="#263238"/><circle cx="200.36" cy="298.63" r="1.17" fill="#263238"/><circle cx="200.36" cy="320.51" r="1.17" fill="#263238"/><circle cx="200.36" cy="342.4" r="1.17" fill="#263238"/><circle cx="200.36" cy="364.29" r="1.17" fill="#263238"/><circle cx="200.36" cy="386.17" r="1.17" fill="#263238"/><circle cx="330.31" cy="298.63" r="1.17" fill="#263238"/><circle cx="330.31" cy="320.51" r="1.17" fill="#263238"/><circle cx="330.31" cy="342.4" r="1.17" fill="#263238"/><circle cx="330.31" cy="364.29" r="1.17" fill="#263238"/><circle cx="330.31" cy="386.17" r="1.17" fill="#263238"/><path fill="#455a64" d="M234.3 272.27h51.1v12.04h-51.1z"/><path d="M238 284.32a32.12 32.12 0 01-.26-5.82 32 32 0 01.26-5.81 33.09 33.09 0 01.26 5.81 33.25 33.25 0 01-.26 5.82zm5.23 0a33.25 33.25 0 01-.26-5.82 33.09 33.09 0 01.26-5.81 32 32 0 01.26 5.81 32.12 32.12 0 01-.26 5.82zm5.25 0a33.25 33.25 0 01-.26-5.82 33.09 33.09 0 01.26-5.81 33.09 33.09 0 01.26 5.81 33.25 33.25 0 01-.26 5.82zm5.25 0a32.12 32.12 0 01-.26-5.82 32 32 0 01.26-5.81 33.09 33.09 0 01.26 5.81 33.25 33.25 0 01-.26 5.82zm5.27 0a33.25 33.25 0 01-.26-5.82 33.09 33.09 0 01.26-5.81 32 32 0 01.26 5.81 32.12 32.12 0 01-.26 5.82zm5.22 0a33.25 33.25 0 01-.26-5.82 33.09 33.09 0 01.26-5.81 33.09 33.09 0 01.26 5.81 33.25 33.25 0 01-.26 5.82zm5.25 0a32.12 32.12 0 01-.26-5.82 32 32 0 01.26-5.81 33.09 33.09 0 01.26 5.81 33.25 33.25 0 01-.26 5.82zm5.24 0a33.25 33.25 0 01-.26-5.82 33.09 33.09 0 01.26-5.81 32 32 0 01.26 5.81 32.12 32.12 0 01-.26 5.82zm5.29 0a33.25 33.25 0 01-.26-5.82 33.09 33.09 0 01.26-5.81 33.09 33.09 0 01.26 5.81 33.25 33.25 0 01-.26 5.82z" fill="#263238"/><path d="M345.68 310.42c1.24 6.26 2.39 12.16 3.62 18.42a26.7 26.7 0 01-3.62 0v-18.41" opacity=".3"/><path d="M192.15 296.05c.14 0 0 18.68-.35 41.71s-.71 41.7-.86 41.7 0-18.67.34-41.71.72-41.7.87-41.7zM213.89 382c-.15 0-.26-9.3-.26-20.77s.11-20.77.26-20.77.26 9.3.26 20.77S214 382 213.89 382zm98.21-94.32c0 .15-22.93.26-51.2.26s-51.2-.11-51.2-.26 22.92-.26 51.2-.26 51.2.12 51.2.26z" fill="#fff"/></svg>