<svg xmlns="http://www.w3.org/2000/svg" viewBox="0 0 20 20"><linearGradient id="a" x1="2.657" x2="17.343" y1="11" y2="11" gradientUnits="userSpaceOnUse"><stop offset="0" stop-color="#ff5640"/><stop offset="1" stop-color="#cc3737"/></linearGradient><path fill="url(#a)" d="M14.1 16h-.5c-1.6-.1-3.5-.7-5.4-1.6-4-2-6.4-5.1-5.4-7 .5-1 1.7-1.4 3.5-1.3 1.6.1 3.5.7 5.4 1.6 4 2 6.4 5.1 5.4 7-.4.8-1.5 1.3-3 1.3zM5.9 7c-1.1 0-1.9.3-2.1.8-.6 1.2 1.3 3.8 5 5.6 1.7.9 3.5 1.4 5 1.5 1.3.1 2.2-.2 2.5-.8.6-1.2-1.3-3.8-5-5.6-1.7-.9-3.5-1.4-5-1.5h-.4z"/><linearGradient id="b" x1="6.25" x2="13.75" y1="11" y2="11" gradientUnits="userSpaceOnUse"><stop offset="0" stop-color="#ffc80b"/><stop offset="1" stop-color="#e89318"/></linearGradient><path fill="url(#b)" d="M10 19c-2.1 0-3.8-3.5-3.8-8S7.9 3 10 3s3.8 3.5 3.8 8-1.7 8-3.8 8zm0-15c-1.3 0-2.8 2.9-2.8 7s1.4 7 2.8 7 2.8-2.9 2.8-7-1.5-7-2.8-7z"/><linearGradient id="c" x1="2.657" x2="17.343" y1="11" y2="11" gradientUnits="userSpaceOnUse"><stop offset="0" stop-color="#708afb"/><stop offset="1" stop-color="#426de8"/></linearGradient><path fill="url(#c)" d="M5.9 16c-1.5 0-2.6-.5-3-1.3-1-1.9 1.4-4.9 5.4-7 1.8-.9 3.7-1.5 5.4-1.6 1.8-.1 3 .4 3.5 1.3 1 1.9-1.4 4.9-5.4 7-1.8.9-3.7 1.5-5.4 1.6h-.5zm8.2-9h-.4c-1.5.1-3.2.6-5 1.5-3.7 1.9-5.6 4.5-5 5.6.3.6 1.3.9 2.6.8 1.5-.1 3.2-.6 5-1.5 3.7-1.9 5.6-4.5 5-5.6-.3-.5-1.1-.8-2.2-.8z"/><linearGradient id="d" x1="9" x2="11" y1="11" y2="11" gradientUnits="userSpaceOnUse"><stop offset="0" stop-color="#708afb"/><stop offset="1" stop-color="#426de8"/></linearGradient><circle cx="10" cy="11" r="1" fill="url(#d)"/></svg>