<svg xmlns="http://www.w3.org/2000/svg" data-name="Layer 1" viewBox="0 0 512 512"><path fill="#94b0ff" d="M129.31 219.43V73.14L256 146.28v146.29l-126.69-73.14z"/><path fill="#557beb" d="M129.31 73.14L256 0l126.69 73.14L256 146.28"/><path fill="#e9eefc" d="M256 146.28l126.69-73.14v146.29L256 292.57"/><path fill="#94b0ff" d="M2.62 438.86V292.57l126.69 73.14V512L2.62 438.86z"/><path fill="#557beb" d="M2.62 292.57l126.69-73.14L256 292.57l-126.69 73.14"/><path fill="#e9eefc" d="M129.31 365.71L256 292.57v146.29L129.31 512"/><path fill="#94b0ff" d="M256 438.86V292.57l126.69 73.14V512L256 438.86z"/><path fill="#557beb" d="M256 292.57l126.69-73.14 126.69 73.14-126.69 73.14"/><path fill="#e9eefc" d="M382.69 365.71l126.69-73.14v146.29L382.69 512"/></svg>