<svg xmlns="http://www.w3.org/2000/svg" width="32" height="32"><g color="#000" font-weight="400" font-family="sans-serif" fill="#a4abc5"><path d="M15.992 0a.5.5 0 00-.492.507v30.986a.5.5 0 101 0V.507a.5.5 0 00-.508-.508z" style="line-height:normal;text-indent:0;text-align:start;text-decoration-line:none;text-decoration-style:solid;text-decoration-color:#000;text-transform:none;block-progression:tb;white-space:normal;isolation:auto;mix-blend-mode:normal;solid-color:#000;solid-opacity:1" overflow="visible" fill-rule="evenodd"/><path d="M29.395 7.751a.5.5 0 00-.223.07l-8.328 4.807-10.188 5.879-8.328 4.806a.5.5 0 10.5.865l8.328-4.806 10.188-5.879 8.328-4.807a.5.5 0 00-.277-.935z" style="line-height:normal;text-indent:0;text-align:start;text-decoration-line:none;text-decoration-style:solid;text-decoration-color:#000;text-transform:none;block-progression:tb;white-space:normal;isolation:auto;mix-blend-mode:normal;solid-color:#000;solid-opacity:1" overflow="visible" fill-rule="evenodd"/><path d="M2.541 7.751a.5.5 0 00-.213.936l8.328 4.806 10.188 5.88 8.328 4.806a.5.5 0 10.5-.865l-8.328-4.807-10.188-5.879-8.328-4.807a.5.5 0 00-.287-.07z" style="line-height:normal;text-indent:0;text-align:start;text-decoration-line:none;text-decoration-style:solid;text-decoration-color:#000;text-transform:none;block-progression:tb;white-space:normal;isolation:auto;mix-blend-mode:normal;solid-color:#000;solid-opacity:1" overflow="visible" fill-rule="evenodd"/><path d="M16.25 8.07a.5.5 0 00-.5 0l-6.5 3.748a.5.5 0 00-.25.432v7.496a.5.5 0 00.249.434l6.5 3.749a.5.5 0 00.5 0l6.5-3.748a.5.5 0 00.25-.433v-7.496a.5.5 0 00-.25-.433l-6.5-3.75zM16 9.08l6 3.46.001 6.92-6.002 3.46L10 19.46v-6.921l6-3.46z" style="line-height:normal;text-indent:0;text-align:start;text-decoration-line:none;text-decoration-style:solid;text-decoration-color:#000;text-transform:none;block-progression:tb;white-space:normal;isolation:auto;mix-blend-mode:normal;solid-color:#000;solid-opacity:1" overflow="visible"/><path d="M16.249 11.775a.498.502 0 00-.498 0L12.25 13.81a.498.502 0 00-.25.434v4.074a.498.502 0 00.249.434l3.502 2.036a.498.502 0 00.498 0l3.502-2.036a.498.502 0 00.25-.434v-4.073a.498.502 0 00-.25-.434l-3.502-2.036zm-.25 1.013l3.004 1.747v3.492L16 19.774l-3.003-1.746v-3.494L16 12.788z" style="line-height:normal;text-indent:0;text-align:start;text-decoration-line:none;text-decoration-style:solid;text-decoration-color:#000;text-transform:none;block-progression:tb;white-space:normal;isolation:auto;mix-blend-mode:normal;solid-color:#000;solid-opacity:1" overflow="visible"/><path d="M16.42 4.255a.501.499 0 00-.499 0L6.25 9.812a.501.499 0 00-.252.435l.003 11.118a.501.499 0 00.249.431l9.671 5.56a.501.499 0 00.5 0l9.668-5.559a.501.499 0 00.252-.435V10.246a.501.499 0 00-.25-.431l-9.67-5.56zm-.25 1.007l9.17 5.272v10.54l-9.172 5.273-9.167-5.27.002-10.544 9.168-5.27z" style="line-height:normal;text-indent:0;text-align:start;text-decoration-line:none;text-decoration-style:solid;text-decoration-color:#000;text-transform:none;block-progression:tb;white-space:normal;isolation:auto;mix-blend-mode:normal;solid-color:#000;solid-opacity:1" overflow="visible"/><path d="M16.206 1.194a.501.499 0 00-.455.023L3.249 8.393a.501.499 0 00-.25.43v14.354a.501.499 0 00.252.429l12.5 7.175a.501.499 0 00.499 0l12.498-7.177a.501.499 0 00.25-.43l.003-14.353a.501.499 0 00-.251-.428l-12.5-7.176a.501.499 0 00-.044-.025zm-.205 1.03l11.997 6.888v13.773l-12.002 6.89-11.994-6.886.003-13.777 11.996-6.888z" style="line-height:normal;text-indent:0;text-align:start;text-decoration-line:none;text-decoration-style:solid;text-decoration-color:#000;text-transform:none;block-progression:tb;white-space:normal;isolation:auto;mix-blend-mode:normal;solid-color:#000;solid-opacity:1" overflow="visible"/></g></svg>