<svg xmlns="http://www.w3.org/2000/svg" data-name="Layer 1" viewBox="0 0 32 32"><path fill="#56bc8d" d="M31.5 21A9.486 9.486 0 0116 28.35 9.421 9.421 0 0019.5 21a8.514 8.514 0 00-.07-1.14 9.494 9.494 0 006-7.72A9.495 9.495 0 0131.5 21z"/><path fill="#c6e5d6" d="M19.5 21a9.421 9.421 0 01-3.5 7.35A9.42 9.42 0 0112.5 21a8.5 8.5 0 01.07-1.14 9.512 9.512 0 006.86 0A8.514 8.514 0 0119.5 21z"/><path fill="#4880bd" d="M16 28.35a9.495 9.495 0 11-9.43-16.21 9.494 9.494 0 006 7.72A8.5 8.5 0 0012.5 21a9.42 9.42 0 003.5 7.35z"/><path fill="#b7d9f4" d="M16 13.64a9.441 9.441 0 00-3.43 6.22 9.494 9.494 0 01-6-7.72A9.545 9.545 0 0110 11.5a9.431 9.431 0 016 2.14z"/><path fill="#fbea9a" d="M19.43 19.86a9.512 9.512 0 01-6.86 0A9.441 9.441 0 0116 13.64a9.441 9.441 0 013.43 6.22z"/><path fill="#f2a6b5" d="M25.43 12.14a9.494 9.494 0 01-6 7.72A9.441 9.441 0 0016 13.64a9.431 9.431 0 016-2.14 9.545 9.545 0 013.43.64z"/><path fill="#ec4369" d="M25.5 11a8.515 8.515 0 01-.07 1.14A9.545 9.545 0 0022 11.5a9.431 9.431 0 00-6 2.14 9.431 9.431 0 00-6-2.14 9.545 9.545 0 00-3.43.64A8.5 8.5 0 016.5 11a9.5 9.5 0 0119 0z"/></svg>